# Blender v2.93.0 OBJ File: 'rgb troll.blend'
# www.blender.org
o 1rgb_Plane.005
v 288.000000 164.000000 0.000000
v 288.000000 196.000000 0.000000
v 256.000000 196.000000 0.000000
v 256.000000 164.000000 0.000000
v 416.000000 164.000000 0.000000
v 416.000000 196.000000 0.000000
v 384.000000 196.000000 0.000000
v 384.000000 164.000000 0.000000
v 352.000000 164.000000 0.000000
v 352.000000 196.000000 0.000000
v 320.000000 196.000000 0.000000
v 320.000000 164.000000 0.000000
v 545.000000 160.000000 0.000000
v 545.000000 192.000000 0.000000
v 513.000000 192.000000 0.000000
v 513.000000 160.000000 0.000000
v 608.000000 160.000000 0.000000
v 608.000000 192.000000 0.000000
v 576.000000 192.000000 0.000000
v 576.000000 160.000000 0.000000
v 64.000000 100.000000 0.000000
v 64.000000 132.000000 0.000000
v 32.000000 132.000000 0.000000
v 32.000000 100.000000 0.000000
v 64.000000 68.000000 0.000000
v 64.000000 100.000000 0.000000
v 32.000000 100.000000 0.000000
v 32.000000 68.000000 0.000000
v 64.000000 36.000000 0.000000
v 64.000000 68.000000 0.000000
v 32.000000 68.000000 0.000000
v 32.000000 36.000000 0.000000
v 480.000000 100.000000 0.000000
v 480.000000 132.000000 0.000000
v 448.000000 132.000000 0.000000
v 448.000000 100.000000 0.000000
v 480.000000 36.000000 0.000000
v 480.000000 68.000000 0.000000
v 448.000000 68.000000 0.000000
v 448.000000 36.000000 0.000000
vt 0.833333 0.875000
vt 0.750000 1.000000
vt 0.750000 0.875000
vt 1.000000 0.750000
vt 0.916667 0.875000
vt 0.916667 0.750000
vt 0.916667 0.750000
vt 0.833333 0.875000
vt 0.833333 0.750000
vt 0.166667 0.500000
vt 0.083333 0.625000
vt 0.083333 0.500000
vt 0.083333 0.500000
vt 0.000000 0.625000
vt 0.000000 0.500000
vt 0.833333 0.625000
vt 0.750000 0.750000
vt 0.750000 0.625000
vt 0.916667 0.625000
vt 0.833333 0.750000
vt 0.833333 0.625000
vt 1.000000 0.625000
vt 0.916667 0.750000
vt 0.916667 0.625000
vt 0.083333 0.003906
vt 0.000000 0.128906
vt 0.000000 0.003906
vt 0.083333 0.003906
vt -0.000000 0.128906
vt -0.000000 0.003906
vt 0.833333 1.000000
vt 1.000000 0.875000
vt 0.916667 0.875000
vt 0.166667 0.625000
vt 0.083333 0.625000
vt 0.833333 0.750000
vt 0.916667 0.750000
vt 1.000000 0.750000
vt 0.083333 0.128906
vt 0.083333 0.128906
vn 0.0000 0.0000 1.0000
s off
f 1/1/1 3/2/1 4/3/1
f 5/4/1 7/5/1 8/6/1
f 9/7/1 11/8/1 12/9/1
f 13/10/1 15/11/1 16/12/1
f 17/13/1 19/14/1 20/15/1
f 21/16/1 23/17/1 24/18/1
f 25/19/1 27/20/1 28/21/1
f 29/22/1 31/23/1 32/24/1
f 33/25/1 35/26/1 36/27/1
f 37/28/1 39/29/1 40/30/1
f 1/1/1 2/31/1 3/2/1
f 5/4/1 6/32/1 7/5/1
f 9/7/1 10/33/1 11/8/1
f 13/10/1 14/34/1 15/11/1
f 17/13/1 18/35/1 19/14/1
f 21/16/1 22/36/1 23/17/1
f 25/19/1 26/37/1 27/20/1
f 29/22/1 30/38/1 31/23/1
f 33/25/1 34/39/1 35/26/1
f 37/28/1 38/40/1 39/29/1
o 2hsv_Plane.009
v 288.000000 164.000000 0.000000
v 288.000000 196.000000 0.000000
v 256.000000 196.000000 0.000000
v 256.000000 164.000000 0.000000
v 416.000000 164.000000 0.000000
v 416.000000 196.000000 0.000000
v 384.000000 196.000000 0.000000
v 384.000000 164.000000 0.000000
v 352.000000 164.000000 0.000000
v 352.000000 196.000000 0.000000
v 320.000000 196.000000 0.000000
v 320.000000 164.000000 0.000000
v 545.000000 160.000000 0.000000
v 545.000000 192.000000 0.000000
v 513.000000 192.000000 0.000000
v 513.000000 160.000000 0.000000
v 608.000000 160.000000 0.000000
v 608.000000 192.000000 0.000000
v 576.000000 192.000000 0.000000
v 576.000000 160.000000 0.000000
v 64.000000 100.000000 0.000000
v 64.000000 132.000000 0.000000
v 32.000000 132.000000 0.000000
v 32.000000 100.000000 0.000000
v 64.000000 68.000000 0.000000
v 64.000000 100.000000 0.000000
v 32.000000 100.000000 0.000000
v 32.000000 68.000000 0.000000
v 64.000000 36.000000 0.000000
v 64.000000 68.000000 0.000000
v 32.000000 68.000000 0.000000
v 32.000000 36.000000 0.000000
v 480.000000 100.000000 0.000000
v 480.000000 132.000000 0.000000
v 448.000000 132.000000 0.000000
v 448.000000 100.000000 0.000000
v 480.000000 36.000000 0.000000
v 480.000000 68.000000 0.000000
v 448.000000 68.000000 0.000000
v 448.000000 36.000000 0.000000
vt 0.833333 0.750000
vt 0.750000 0.875000
vt 0.750000 0.750000
vt 1.000000 0.750000
vt 0.916667 0.875000
vt 0.916667 0.750000
vt 0.916667 0.875000
vt 0.833333 1.000000
vt 0.833333 0.875000
vt 0.166667 0.500000
vt 0.083333 0.625000
vt 0.083333 0.500000
vt 0.083333 0.500000
vt 0.000000 0.625000
vt 0.000000 0.500000
vt 0.833333 0.500000
vt 0.750000 0.625000
vt 0.750000 0.500000
vt 0.916667 0.500000
vt 0.833333 0.625000
vt 0.833333 0.500000
vt 1.000000 0.500000
vt 0.916667 0.625000
vt 0.916667 0.500000
vt 0.085938 0.003906
vt 0.002604 0.128906
vt 0.002604 0.003906
vt 0.085938 0.003906
vt 0.002604 0.128906
vt 0.002604 0.003906
vt 0.833333 0.875000
vt 1.000000 0.875000
vt 0.916667 1.000000
vt 0.166667 0.625000
vt 0.083333 0.625000
vt 0.833333 0.625000
vt 0.916667 0.625000
vt 1.000000 0.625000
vt 0.085938 0.128906
vt 0.085938 0.128906
vn 0.0000 0.0000 1.0000
s off
f 41/41/2 43/42/2 44/43/2
f 45/44/2 47/45/2 48/46/2
f 49/47/2 51/48/2 52/49/2
f 53/50/2 55/51/2 56/52/2
f 57/53/2 59/54/2 60/55/2
f 61/56/2 63/57/2 64/58/2
f 65/59/2 67/60/2 68/61/2
f 69/62/2 71/63/2 72/64/2
f 73/65/2 75/66/2 76/67/2
f 77/68/2 79/69/2 80/70/2
f 41/41/2 42/71/2 43/42/2
f 45/44/2 46/72/2 47/45/2
f 49/47/2 50/73/2 51/48/2
f 53/50/2 54/74/2 55/51/2
f 57/53/2 58/75/2 59/54/2
f 61/56/2 62/76/2 63/57/2
f 65/59/2 66/77/2 67/60/2
f 69/62/2 70/78/2 71/63/2
f 73/65/2 74/79/2 75/66/2
f 77/68/2 78/80/2 79/69/2
o 3hex_Plane.010
v 288.000000 164.000000 0.000000
v 288.000000 196.000000 0.000000
v 256.000000 196.000000 0.000000
v 256.000000 164.000000 0.000000
v 416.000000 164.000000 0.000000
v 416.000000 196.000000 0.000000
v 384.000000 196.000000 0.000000
v 384.000000 164.000000 0.000000
v 352.000000 164.000000 0.000000
v 352.000000 196.000000 0.000000
v 320.000000 196.000000 0.000000
v 320.000000 164.000000 0.000000
v 545.000000 160.000000 0.000000
v 545.000000 192.000000 0.000000
v 513.000000 192.000000 0.000000
v 513.000000 160.000000 0.000000
v 608.000000 160.000000 0.000000
v 608.000000 192.000000 0.000000
v 576.000000 192.000000 0.000000
v 576.000000 160.000000 0.000000
v 64.000000 100.000000 0.000000
v 64.000000 132.000000 0.000000
v 32.000000 132.000000 0.000000
v 32.000000 100.000000 0.000000
v 64.000000 68.000000 0.000000
v 64.000000 100.000000 0.000000
v 32.000000 100.000000 0.000000
v 32.000000 68.000000 0.000000
v 64.000000 36.000000 0.000000
v 64.000000 68.000000 0.000000
v 32.000000 68.000000 0.000000
v 32.000000 36.000000 0.000000
v 480.000000 100.000000 0.000000
v 480.000000 132.000000 0.000000
v 448.000000 132.000000 0.000000
v 448.000000 100.000000 0.000000
v 480.000000 36.000000 0.000000
v 480.000000 68.000000 0.000000
v 448.000000 68.000000 0.000000
v 448.000000 36.000000 0.000000
vt 0.833333 0.750000
vt 0.750000 0.875000
vt 0.750000 0.750000
vt 1.000000 0.875000
vt 0.916667 1.000000
vt 0.916667 0.875000
vt 0.916667 0.750000
vt 0.833333 0.875000
vt 0.833333 0.750000
vt 0.166667 0.500000
vt 0.083333 0.625000
vt 0.083333 0.500000
vt 0.083333 0.500000
vt 0.000000 0.625000
vt 0.000000 0.500000
vt 0.833333 0.375000
vt 0.750000 0.500000
vt 0.750000 0.375000
vt 0.916667 0.375000
vt 0.833333 0.500000
vt 0.833333 0.375000
vt 1.000000 0.375000
vt 0.916667 0.500000
vt 0.916667 0.375000
vt 0.083333 0.375000
vt 0.000000 0.500000
vt 0.000000 0.375000
vt 0.250000 0.875000
vt 0.166667 1.000000
vt 0.166667 0.875000
vt 0.833333 0.875000
vt 1.000000 1.000000
vt 0.916667 0.875000
vt 0.166667 0.625000
vt 0.083333 0.625000
vt 0.833333 0.500000
vt 0.916667 0.500000
vt 1.000000 0.500000
vt 0.083333 0.500000
vt 0.250000 1.000000
vn 0.0000 0.0000 1.0000
s off
f 81/81/3 83/82/3 84/83/3
f 85/84/3 87/85/3 88/86/3
f 89/87/3 91/88/3 92/89/3
f 93/90/3 95/91/3 96/92/3
f 97/93/3 99/94/3 100/95/3
f 101/96/3 103/97/3 104/98/3
f 105/99/3 107/100/3 108/101/3
f 109/102/3 111/103/3 112/104/3
f 113/105/3 115/106/3 116/107/3
f 117/108/3 119/109/3 120/110/3
f 81/81/3 82/111/3 83/82/3
f 85/84/3 86/112/3 87/85/3
f 89/87/3 90/113/3 91/88/3
f 93/90/3 94/114/3 95/91/3
f 97/93/3 98/115/3 99/94/3
f 101/96/3 102/116/3 103/97/3
f 105/99/3 106/117/3 107/100/3
f 109/102/3 110/118/3 111/103/3
f 113/105/3 114/119/3 115/106/3
f 117/108/3 118/120/3 119/109/3
