# Blender v2.93.0 OBJ File: 'fantroll creator.blend'
# www.blender.org
mtllib creator.mtl
o Plane
v 32.000000 32.000000 -33.000000
v 320.000000 32.000000 -33.000000
v 32.000000 448.000000 -33.000000
v 320.000000 448.000000 -33.000000
v 32.000000 32.000000 -32.000000
v 320.000000 32.000000 -32.000000
v 32.000000 448.000000 -32.000000
v 320.000000 448.000000 -32.000000
v 32.000000 32.000000 -31.000000
v 320.000000 32.000000 -31.000000
v 32.000000 448.000000 -31.000000
v 320.000000 448.000000 -31.000000
v 32.000000 32.000000 -30.000000
v 320.000000 32.000000 -30.000000
v 32.000000 448.000000 -30.000000
v 320.000000 448.000000 -30.000000
v 32.000000 32.000000 -29.000000
v 320.000000 32.000000 -29.000000
v 32.000000 448.000000 -29.000000
v 320.000000 448.000000 -29.000000
v 32.000000 32.000000 -28.000000
v 320.000000 32.000000 -28.000000
v 32.000000 448.000000 -28.000000
v 320.000000 448.000000 -28.000000
v 32.000000 32.000000 -27.000000
v 320.000000 32.000000 -27.000000
v 32.000000 448.000000 -27.000000
v 320.000000 448.000000 -27.000000
v 32.000000 32.000000 -26.000000
v 320.000000 32.000000 -26.000000
v 32.000000 448.000000 -26.000000
v 320.000000 448.000000 -26.000000
v 32.000000 32.000000 -25.000000
v 320.000000 32.000000 -25.000000
v 32.000000 448.000000 -25.000000
v 320.000000 448.000000 -25.000000
v 32.000000 32.000000 -24.000000
v 320.000000 32.000000 -24.000000
v 32.000000 448.000000 -24.000000
v 320.000000 448.000000 -24.000000
v 32.000000 32.000000 -23.000000
v 320.000000 32.000000 -23.000000
v 32.000000 448.000000 -23.000000
v 320.000000 448.000000 -23.000000
v 320.000000 32.000000 -22.000000
v 32.000000 32.000000 -22.000000
v 320.000000 448.000000 -22.000000
v 32.000000 448.000000 -22.000000
v 32.000000 32.000000 -21.000000
v 320.000000 32.000000 -21.000000
v 32.000000 448.000000 -21.000000
v 320.000000 448.000000 -21.000000
v 320.000000 32.000000 -20.000000
v 32.000000 32.000000 -20.000000
v 320.000000 448.000000 -20.000000
v 32.000000 448.000000 -20.000000
v 32.000000 32.000000 -19.000000
v 320.000000 32.000000 -19.000000
v 32.000000 448.000000 -19.000000
v 320.000000 448.000000 -19.000000
v 320.000000 32.000000 -18.000000
v 32.000000 32.000000 -18.000000
v 320.000000 448.000000 -18.000000
v 32.000000 448.000000 -18.000000
v 32.000000 32.000000 -17.000000
v 320.000000 32.000000 -17.000000
v 32.000000 448.000000 -17.000000
v 320.000000 448.000000 -17.000000
v 320.000000 32.000000 -16.000000
v 32.000000 32.000000 -16.000000
v 320.000000 448.000000 -16.000000
v 32.000000 448.000000 -16.000000
v 32.000000 32.000000 -15.000000
v 320.000000 32.000000 -15.000000
v 32.000000 448.000000 -15.000000
v 320.000000 448.000000 -15.000000
v 32.000000 32.000000 -14.000000
v 320.000000 32.000000 -14.000000
v 32.000000 448.000000 -14.000000
v 320.000000 448.000000 -14.000000
v 32.000000 32.000000 -13.000000
v 320.000000 32.000000 -13.000000
v 32.000000 448.000000 -13.000000
v 320.000000 448.000000 -13.000000
v 32.000000 32.000000 -12.000000
v 320.000000 32.000000 -12.000000
v 32.000000 448.000000 -12.000000
v 320.000000 448.000000 -12.000000
v 32.000000 32.000000 -11.000000
v 320.000000 32.000000 -11.000000
v 32.000000 448.000000 -11.000000
v 320.000000 448.000000 -11.000000
v 32.000000 32.000000 -10.000000
v 320.000000 32.000000 -10.000000
v 32.000000 448.000000 -10.000000
v 320.000000 448.000000 -10.000000
v 32.000000 32.000000 -9.000000
v 320.000000 32.000000 -9.000000
v 32.000000 448.000000 -9.000000
v 320.000000 448.000000 -9.000000
v 32.000000 32.000000 -8.000000
v 320.000000 32.000000 -8.000000
v 32.000000 448.000000 -8.000000
v 320.000000 448.000000 -8.000000
v 32.000000 32.000000 -7.000000
v 320.000000 32.000000 -7.000000
v 32.000000 448.000000 -7.000000
v 320.000000 448.000000 -7.000000
v 32.000000 32.000000 -6.000000
v 320.000000 32.000000 -6.000000
v 32.000000 448.000000 -6.000000
v 320.000000 448.000000 -6.000000
v 320.000000 32.000000 -5.000000
v 32.000000 32.000000 -5.000000
v 320.000000 448.000000 -5.000000
v 32.000000 448.000000 -5.000000
v 32.000000 32.000000 -4.000000
v 320.000000 32.000000 -4.000000
v 32.000000 448.000000 -4.000000
v 320.000000 448.000000 -4.000000
v 32.000000 32.000000 -3.000000
v 320.000000 32.000000 -3.000000
v 32.000000 448.000000 -3.000000
v 320.000000 448.000000 -3.000000
v 32.000000 32.000000 -2.000000
v 320.000000 32.000000 -2.000000
v 32.000000 448.000000 -2.000000
v 320.000000 448.000000 -2.000000
v 32.000000 32.000000 -1.000000
v 320.000000 32.000000 -1.000000
v 32.000000 448.000000 -1.000000
v 320.000000 448.000000 -1.000000
v 32.000000 32.000000 0.000000
v 320.000000 32.000000 0.000000
v 32.000000 448.000000 0.000000
v 320.000000 448.000000 0.000000
vt 1.000000 0.000000
vt 0.000000 1.000000
vt 0.000000 0.000000
vt 1.000000 1.000000
vt 1.000000 0.000000
vt 0.000000 1.000000
vt 0.000000 0.000000
vt 1.000000 1.000000
vt 1.000000 0.000000
vt 0.000000 1.000000
vt 0.000000 0.000000
vt 1.000000 1.000000
vt 1.000000 0.000000
vt 0.000000 1.000000
vt 0.000000 0.000000
vt 1.000000 1.000000
vt 1.000000 0.000000
vt 0.000000 1.000000
vt 0.000000 0.000000
vt 1.000000 1.000000
vt 1.000000 0.000000
vt 0.000000 1.000000
vt 0.000000 0.000000
vt 1.000000 1.000000
vt 1.000000 0.000000
vt 0.000000 1.000000
vt 0.000000 0.000000
vt 1.000000 1.000000
vt 1.000000 0.000000
vt 0.000000 1.000000
vt 0.000000 0.000000
vt 1.000000 1.000000
vt 1.000000 0.000000
vt 0.000000 1.000000
vt 0.000000 0.000000
vt 1.000000 1.000000
vt 1.000000 0.000000
vt 0.000000 1.000000
vt 0.000000 0.000000
vt 1.000000 1.000000
vt 1.000000 0.000000
vt 0.000000 1.000000
vt 0.000000 0.000000
vt 1.000000 1.000000
vt 1.000000 0.000000
vt 0.000000 1.000000
vt 0.000000 0.000000
vt 1.000000 1.000000
vt 1.000000 0.000000
vt 0.000000 1.000000
vt 0.000000 0.000000
vt 1.000000 1.000000
vt 1.000000 0.000000
vt 0.000000 1.000000
vt 0.000000 0.000000
vt 1.000000 1.000000
vt 1.000000 0.000000
vt 0.000000 1.000000
vt 0.000000 0.000000
vt 1.000000 1.000000
vt 1.000000 0.000000
vt 0.000000 1.000000
vt 0.000000 0.000000
vt 1.000000 1.000000
vt 1.000000 0.000000
vt 0.000000 1.000000
vt 0.000000 0.000000
vt 1.000000 1.000000
vt 1.000000 0.000000
vt 0.000000 1.000000
vt 0.000000 0.000000
vt 1.000000 1.000000
vt 1.000000 0.000000
vt 0.000000 1.000000
vt 0.000000 0.000000
vt 1.000000 1.000000
vt 1.000000 0.000000
vt 0.000000 1.000000
vt 0.000000 0.000000
vt 1.000000 1.000000
vt 1.000000 0.000000
vt 0.000000 1.000000
vt 0.000000 0.000000
vt 1.000000 1.000000
vt 1.000000 0.000000
vt 0.000000 1.000000
vt 0.000000 0.000000
vt 1.000000 1.000000
vt 1.000000 0.000000
vt 0.000000 1.000000
vt 0.000000 0.000000
vt 1.000000 1.000000
vt 1.000000 0.000000
vt 0.000000 1.000000
vt 0.000000 0.000000
vt 1.000000 1.000000
vt 1.000000 0.000000
vt 0.000000 1.000000
vt 0.000000 0.000000
vt 1.000000 1.000000
vt 1.000000 0.000000
vt 0.000000 1.000000
vt 0.000000 0.000000
vt 1.000000 1.000000
vt 1.000000 0.000000
vt 0.000000 1.000000
vt 0.000000 0.000000
vt 1.000000 1.000000
vt 1.000000 0.000000
vt 0.000000 1.000000
vt 0.000000 0.000000
vt 1.000000 1.000000
vt 1.000000 0.000000
vt 0.000000 1.000000
vt 0.000000 0.000000
vt 1.000000 1.000000
vt 1.000000 0.000000
vt 0.000000 1.000000
vt 0.000000 0.000000
vt 1.000000 1.000000
vt 1.000000 0.000000
vt 0.000000 1.000000
vt 0.000000 0.000000
vt 1.000000 1.000000
vt 1.000000 0.000000
vt 0.000000 1.000000
vt 0.000000 0.000000
vt 1.000000 1.000000
vt 1.000000 0.000000
vt 0.000000 1.000000
vt 0.000000 0.000000
vt 1.000000 1.000000
vt 1.000000 0.000000
vt 0.000000 1.000000
vt 0.000000 0.000000
vt 1.000000 1.000000
vn 0.0000 0.0000 1.0000
vn 0.0000 0.0000 -1.0000
usemtl bg
s off
f 2/1/1 3/2/1 1/3/1
f 2/1/1 4/4/1 3/2/1
usemtl backtint
f 6/5/1 7/6/1 5/7/1
f 6/5/1 8/8/1 7/6/1
usemtl acc_back
f 10/9/1 11/10/1 9/11/1
f 10/9/1 12/12/1 11/10/1
usemtl hairtint
f 14/13/1 15/14/1 13/15/1
f 14/13/1 16/16/1 15/14/1
usemtl hair
f 18/17/1 19/18/1 17/19/1
f 18/17/1 20/20/1 19/18/1
usemtl bodyTint
f 22/21/1 23/22/1 21/23/1
f 22/21/1 24/24/1 23/22/1
usemtl body
f 26/25/1 27/26/1 25/27/1
f 26/25/1 28/28/1 27/26/1
usemtl markings
f 30/29/1 31/30/1 29/31/1
f 30/29/1 32/32/1 31/30/1
usemtl facepaint
f 34/33/1 35/34/1 33/35/1
f 34/33/1 36/36/1 35/34/1
usemtl mouth
f 38/37/1 39/38/1 37/39/1
f 38/37/1 40/40/1 39/38/1
usemtl eyebrows
f 42/41/1 43/42/1 41/43/1
f 42/41/1 44/44/1 43/42/1
usemtl eyetintR
f 46/45/2 47/46/2 45/47/2
f 46/45/2 48/48/2 47/46/2
usemtl eyetintL
f 50/49/1 51/50/1 49/51/1
f 50/49/1 52/52/1 51/50/1
usemtl eyeR
f 54/53/2 55/54/2 53/55/2
f 54/53/2 56/56/2 55/54/2
usemtl eyeL
f 58/57/1 59/58/1 57/59/1
f 58/57/1 60/60/1 59/58/1
usemtl shoeTint.R
f 62/61/2 63/62/2 61/63/2
f 62/61/2 64/64/2 63/62/2
usemtl shoeTint.L
f 66/65/1 67/66/1 65/67/1
f 66/65/1 68/68/1 67/66/1
usemtl shoe.R
f 70/69/2 71/70/2 69/71/2
f 70/69/2 72/72/2 71/70/2
usemtl shoe.L
f 74/73/1 75/74/1 73/75/1
f 74/73/1 76/76/1 75/74/1
usemtl bottomTint
f 78/77/1 79/78/1 77/79/1
f 78/77/1 80/80/1 79/78/1
usemtl bottom
f 82/81/1 83/82/1 81/83/1
f 82/81/1 84/84/1 83/82/1
usemtl acc_clothTint
f 86/85/1 87/86/1 85/87/1
f 86/85/1 88/88/1 87/86/1
usemtl acc_cloth
f 90/89/1 91/90/1 89/91/1
f 90/89/1 92/92/1 91/90/1
usemtl uppertint
f 94/93/1 95/94/1 93/95/1
f 94/93/1 96/96/1 95/94/1
usemtl upper
f 98/97/1 99/98/1 97/99/1
f 98/97/1 100/100/1 99/98/1
usemtl sigilTint
f 102/101/1 103/102/1 101/103/1
f 102/101/1 104/104/1 103/102/1
usemtl acc_faceTint
f 106/105/1 107/106/1 105/107/1
f 106/105/1 108/108/1 107/106/1
usemtl acc_face
f 110/109/1 111/110/1 109/111/1
f 110/109/1 112/112/1 111/110/1
usemtl horn.R
f 114/113/2 115/114/2 113/115/2
f 114/113/2 116/116/2 115/114/2
usemtl horn.L
f 118/117/1 119/118/1 117/119/1
f 118/117/1 120/120/1 119/118/1
usemtl bangstint
f 122/121/1 123/122/1 121/123/1
f 122/121/1 124/124/1 123/122/1
usemtl bangs
f 126/125/1 127/126/1 125/127/1
f 126/125/1 128/128/1 127/126/1
usemtl acc_hatsTint
f 130/129/1 131/130/1 129/131/1
f 130/129/1 132/132/1 131/130/1
usemtl acc_hats
f 134/133/1 135/134/1 133/135/1
f 134/133/1 136/136/1 135/134/1
